# xmcd
#
# Track frame offsets:
#        150
#        17373
#        39588
#        63242
#        82020
#        109011
#        129991
#        151934
#        177001
#        200305
#        237054
#
# Disc length: 4440 seconds
#
# Revision: 0
# Processed by: cddbd v1.5.1PL0 Copyright (c) Steve Scherf et al.
# Submitted via: ExactAudioCopy v0.95a5
#
DISCID=7a11560b
DTITLE=LISA - Melody Circus
DYEAR=2005
DGENRE=JPop
TTITLE0=Eternal Flame
TTITLE1=You Got It All
TTITLE2=Cherish
TTITLE3=Against All Odds(Take A Look At Me Now)
TTITLE4=Heaven
TTITLE5=Kissing A Fool
TTITLE6=Time After Time
TTITLE7=Starfish And Coffee -Raspberry Beret
TTITLE8=Saving All My Love For You
TTITLE9=Every Breath You Take
TTITLE10=DATA
EXTD=
EXTT0=
EXTT1=
EXTT2=
EXTT3=
EXTT4=
EXTT5=
EXTT6=
EXTT7=
EXTT8=
EXTT9=
EXTT10=
PLAYORDER=
